<?xml version="1.0" encoding="utf-8"?>
<!-- Generator: Adobe Illustrator 22.0.1, SVG Export Plug-In . SVG Version: 6.00 Build 0)  -->
<svg version="1.1" id="Layer_1" xmlns="http://www.w3.org/2000/svg" xmlns:xlink="http://www.w3.org/1999/xlink" x="0px" y="0px"
	 viewBox="0 0 445 109.2" style="enable-background:new 0 0 445 109.2;" xml:space="preserve">
<style type="text/css">
	.st0{fill:#4C4C4C;}
	.st1{fill:#00B67A;}
	.st2{fill:#005128;}
</style>
<path class="st0" d="M117,38.7H162v8.4h-17.7v47.3h-9.7V47.1h-17.6L117,38.7L117,38.7z M160.1,54.1h8.3v7.8h0.2
	c0.3-1.1,0.8-2.2,1.5-3.2c0.7-1,1.7-2,2.7-2.8c1.1-0.9,2.2-1.5,3.5-2.1c1.3-0.5,2.6-0.8,4-0.8c1,0,1.8,0,2.2,0.1s0.8,0.1,1.2,0.2
	v8.6c-0.6-0.1-1.3-0.2-1.9-0.3c-0.7-0.1-1.3-0.1-1.9-0.1c-1.5,0-2.9,0.3-4.2,0.9s-2.5,1.5-3.5,2.6c-1,1.2-1.8,2.6-2.4,4.3
	c-0.6,1.7-0.9,3.7-0.9,5.9v19.2h-8.9L160.1,54.1L160.1,54.1z M224.5,94.4h-8.7v-5.6h-0.2c-1.1,2-2.7,3.7-4.9,4.9s-4.4,1.8-6.6,1.8
	c-5.3,0-9.2-1.3-11.5-3.9c-2.4-2.6-3.5-6.6-3.5-11.9V54.1h8.9v24.7c0,3.5,0.7,6.1,2,7.5c1.3,1.5,3.3,2.2,5.7,2.2
	c1.9,0,3.4-0.3,4.7-0.9c1.3-0.6,2.3-1.3,3-2.3c0.8-0.9,1.3-2.1,1.7-3.5c0.4-1.3,0.5-2.8,0.5-4.4V54.1h8.9V94.4z M239.7,81.5
	c0.3,2.6,1.3,4.4,2.9,5.5c1.7,1,3.8,1.6,6.2,1.6c0.8,0,1.8-0.1,2.8-0.2c1.1-0.1,2.1-0.4,3-0.7c0.9-0.4,1.7-0.9,2.3-1.6
	c0.6-0.7,0.9-1.6,0.8-2.8c0-1.1-0.5-2.1-1.3-2.8c-0.8-0.7-1.8-1.3-3-1.8c-1.2-0.4-2.6-0.8-4.2-1.1c-1.6-0.3-3.1-0.7-4.8-1
	c-1.7-0.4-3.3-0.8-4.8-1.3c-1.5-0.5-2.9-1.2-4.1-2.1c-1.2-0.9-2.2-2-2.9-3.4c-0.7-1.4-1.1-3.1-1.1-5.1c0-2.2,0.6-4,1.6-5.5
	c1.1-1.5,2.4-2.7,4-3.6c1.7-0.9,3.5-1.5,5.5-1.9c2-0.4,3.9-0.6,5.7-0.6c2.1,0,4.1,0.2,6,0.7c1.9,0.4,3.6,1.1,5.1,2.2
	c1.5,1,2.8,2.3,3.8,3.9c1,1.6,1.7,3.5,1.9,5.7h-9.3c-0.4-2.1-1.4-3.6-2.9-4.3c-1.5-0.7-3.3-1.1-5.3-1.1c-0.6,0-1.4,0-2.2,0.2
	c-0.9,0.1-1.7,0.3-2.4,0.6c-0.7,0.3-1.4,0.7-1.9,1.3c-0.5,0.6-0.8,1.3-0.8,2.2c0,1.1,0.4,2,1.1,2.6c0.7,0.7,1.7,1.2,2.9,1.7
	c1.2,0.4,2.6,0.8,4.2,1.1c1.6,0.3,3.2,0.7,4.8,1c1.6,0.4,3.2,0.8,4.8,1.3c1.6,0.5,2.9,1.2,4.2,2.1c1.2,0.9,2.2,2,2.9,3.3
	s1.1,3,1.1,5c0,2.4-0.6,4.4-1.7,6.1c-1.1,1.7-2.5,3-4.2,4c-1.7,1-3.7,1.8-5.8,2.3c-2.1,0.5-4.2,0.7-6.3,0.7c-2.6,0-4.9-0.3-7.1-0.9
	s-4-1.5-5.6-2.6c-1.6-1.2-2.8-2.6-3.7-4.4s-1.4-3.8-1.5-6.2L239.7,81.5L239.7,81.5z M269,54.1h6.7V42h8.9v12.1h8v6.6h-8v21.5
	c0,0.9,0,1.7,0.1,2.4c0.1,0.7,0.3,1.3,0.6,1.7s0.7,0.8,1.3,1.1c0.6,0.2,1.3,0.4,2.4,0.4c0.6,0,1.3,0,1.9,0s1.3-0.1,1.9-0.3v6.9
	c-1,0.1-2,0.2-2.9,0.3c-0.9,0.1-1.9,0.2-2.9,0.2c-2.4,0-4.2-0.2-5.7-0.7c-1.4-0.4-2.6-1.1-3.3-2c-0.8-0.9-1.3-1.9-1.7-3.2
	c-0.3-1.3-0.5-2.8-0.5-4.4V60.8H269L269,54.1L269,54.1z M298.9,54.1h8.4v5.5h0.2c1.3-2.4,3-4,5.2-5c2.2-1,4.6-1.5,7.3-1.5
	c3.2,0,5.9,0.6,8.3,1.7c2.4,1.1,4.3,2.6,5.9,4.6s2.7,4.2,3.5,6.8c0.8,2.6,1.2,5.4,1.2,8.3c0,2.7-0.4,5.3-1.1,7.9
	c-0.7,2.6-1.8,4.8-3.2,6.8c-1.4,2-3.2,3.5-5.4,4.7s-4.8,1.8-7.7,1.8c-1.3,0-2.6-0.1-3.9-0.4c-1.3-0.2-2.6-0.6-3.7-1.1
	c-1.2-0.5-2.3-1.2-3.3-2c-1-0.8-1.8-1.8-2.6-2.8h-0.2v20.1h-8.9V54.1z M329.9,74.3c0-1.8-0.2-3.6-0.7-5.3c-0.5-1.7-1.2-3.2-2.1-4.6
	c-0.9-1.3-2.1-2.4-3.5-3.2c-1.4-0.8-3-1.2-4.8-1.2c-3.7,0-6.6,1.3-8.4,3.9c-1.9,2.6-2.8,6.1-2.8,10.4c0,2,0.2,3.9,0.7,5.7
	c0.5,1.7,1.2,3.2,2.2,4.5c1,1.3,2.2,2.2,3.5,2.9c1.4,0.7,3,1.1,4.8,1.1c2,0,3.7-0.4,5.1-1.3c1.4-0.8,2.6-1.9,3.5-3.2
	c0.9-1.3,1.6-2.8,2-4.5C329.7,77.8,329.9,76.1,329.9,74.3L329.9,74.3z M345.6,38.7h8.9v8.4h-8.9V38.7z M345.6,54.1h8.9v40.3h-8.9
	V54.1L345.6,54.1z M362.4,38.7h8.9v55.7h-8.9V38.7L362.4,38.7z M398.5,95.5c-3.2,0-6.1-0.6-8.6-1.6s-4.6-2.6-6.4-4.4
	c-1.7-1.9-3.1-4.1-4-6.7c-0.9-2.6-1.4-5.5-1.4-8.6c0-3.1,0.5-5.9,1.4-8.5c0.9-2.6,2.2-4.8,4-6.7c1.7-1.9,3.9-3.3,6.4-4.4
	c2.5-1.1,5.4-1.6,8.6-1.6s6.1,0.6,8.6,1.6c2.5,1.1,4.6,2.6,6.4,4.4c1.7,1.9,3.1,4.1,4,6.7c0.9,2.6,1.4,5.4,1.4,8.5
	c0,3.1-0.5,6-1.4,8.6c-0.9,2.6-2.2,4.8-4,6.7c-1.7,1.9-3.9,3.3-6.4,4.4C404.6,95,401.7,95.5,398.5,95.5L398.5,95.5z M398.5,88.5
	c2,0,3.7-0.4,5.1-1.3c1.5-0.8,2.6-1.9,3.6-3.3c0.9-1.3,1.6-2.9,2.1-4.6c0.4-1.7,0.7-3.4,0.7-5.2c0-1.7-0.2-3.4-0.7-5.1
	c-0.4-1.7-1.1-3.2-2.1-4.6c-0.9-1.3-2.1-2.4-3.6-3.2c-1.5-0.8-3.2-1.3-5.1-1.3c-2,0-3.7,0.4-5.1,1.3c-1.5,0.8-2.6,1.9-3.6,3.2
	c-0.9,1.3-1.6,2.8-2.1,4.6c-0.4,1.7-0.7,3.4-0.7,5.1c0,1.8,0.2,3.5,0.7,5.2c0.4,1.7,1.1,3.2,2.1,4.6c0.9,1.3,2.1,2.4,3.6,3.3
	C394.8,88.1,396.5,88.5,398.5,88.5L398.5,88.5z M421.4,54.1h6.7V42h8.9v12.1h8v6.6h-8v21.5c0,0.9,0,1.7,0.1,2.4
	c0.1,0.7,0.3,1.3,0.6,1.7c0.3,0.5,0.7,0.8,1.3,1.1c0.6,0.2,1.3,0.4,2.4,0.4c0.6,0,1.3,0,1.9,0c0.6,0,1.3-0.1,1.9-0.3v6.9
	c-1,0.1-2,0.2-2.9,0.3c-0.9,0.1-1.9,0.2-2.9,0.2c-2.4,0-4.2-0.2-5.7-0.7c-1.4-0.4-2.6-1.1-3.3-2c-0.8-0.9-1.3-1.9-1.7-3.2
	c-0.3-1.3-0.5-2.8-0.5-4.4V60.8h-6.7L421.4,54.1L421.4,54.1z"/>
<path class="st1" d="M106.6,38.7H65.9L53.3,0L40.7,38.7L0,38.7l33,24l-12.6,38.7l33-23.9l32.9,23.9L73.7,62.7L106.6,38.7z"/>
<path class="st2" d="M76.5,71.4l-2.8-8.8L53.3,77.4L76.5,71.4z"/>
</svg>
